<svg xmlns="http://www.w3.org/2000/svg" viewBox="0 0 64 64" fill="none">
  <rect x="4" y="4" width="56" height="56" rx="15" fill="#EBF4E6"/>
  <g stroke="#3B5243" stroke-width="2.25" stroke-linecap="round" stroke-linejoin="round">
    <path d="M21 23.5h13.5a1.2 1.2 0 0 1 1.2 1.2v2.2c0 .8-.6 1.4-1.2 1.4s-1.2.6-1.2 1.4v2.2a1.2 1.2 0 0 1-1.2 1.2H21a1.2 1.2 0 0 1-1.2-1.2v-2.2c0-.8.6-1.4 1.2-1.4s1.2-.6 1.2-1.4v-2.2a1.2 1.2 0 0 1 1.2-1.2z"/>
    <path d="M29.5 27.5h13.5a1.2 1.2 0 0 1 1.2 1.2v2.2c0 .8-.6 1.4-1.2 1.4s-1.2.6-1.2 1.4v2.2a1.2 1.2 0 0 1-1.2 1.2H29.5a1.2 1.2 0 0 1-1.2-1.2v-2.2c0-.8.6-1.4 1.2-1.4s1.2-.6 1.2-1.4v-2.2a1.2 1.2 0 0 1 1.2-1.2z"/>
  </g>
</svg>
