<svg xmlns="http://www.w3.org/2000/svg" viewBox="0 0 64 64" fill="none">
  <rect x="4" y="4" width="56" height="56" rx="15" fill="#EEF3FF"/>
  <g stroke="#1A56DB" stroke-width="2.25" stroke-linecap="round" stroke-linejoin="round">
    <path d="M21 23.5h13a1.2 1.2 0 0 1 1.2 1.2v2c0 .7-.5 1.3-1.2 1.3s-1.2.6-1.2 1.3v2a1.2 1.2 0 0 1-1.2 1.2H21a1.2 1.2 0 0 1-1.2-1.2v-2c0-.7.5-1.3 1.2-1.3s1.2-.6 1.2-1.3v-2a1.2 1.2 0 0 1 1.2-1.2z"/>
    <path d="M29.5 27.5h13a1.2 1.2 0 0 1 1.2 1.2v2c0 .7-.5 1.3-1.2 1.3s-1.2.6-1.2 1.3v2a1.2 1.2 0 0 1-1.2 1.2H29.5a1.2 1.2 0 0 1-1.2-1.2v-2c0-.7.5-1.3 1.2-1.3s1.2-.6 1.2-1.3v-2a1.2 1.2 0 0 1 1.2-1.2z"/>
  </g>
</svg>
