<svg xmlns="http://www.w3.org/2000/svg" viewBox="0 0 64 64" fill="none">
  <rect x="4" y="4" width="56" height="56" rx="15" fill="#EEF3FF"/>
  <g stroke="#1A56DB" stroke-width="2.25" stroke-linecap="round" stroke-linejoin="round">
    <path d="M22 38.5V32.5c0-6.5 4.5-11.5 10-11.5s10 5 10 11.5v6"/>
    <path d="M18 38.5h28"/>
    <path d="M19.5 33h2.2M42.3 33h2.2"/>
    <path d="M25 37.2a3.2 1.3 0 0 1 6.4 0"/>
    <path d="M32.6 37.2a3.2 1.3 0 0 1 6.4 0"/>
    <path d="M30 38.5h4"/>
    <path d="M24.2 38.5a2.4 2.4 0 1 1-.1 0M37.8 38.5a2.4 2.4 0 1 1-.1 0"/>
  </g>
</svg>
